
*******Open.Water.2.Adrift.2006.x264.AC3(5.1).Nordic.mkv-Zen_Bud******

Format                           : Matroska
File size                        : 1.89 GiB
Duration                         : 1h 30mn
Overall bit rate                 : 2 990 Kbps
Writing application              : HandBrake svn3523
Writing library                  : libmkv 0.6.4.1

Video

Format                           : AVC
Duration                         : 1h 30mn
Bit rate                         : 2 483 Kbps
Width                            : 716 pixels
Height                           : 436 pixels
Display aspect ratio             : 2.35:1
Stream size                      : 1.57 GiB (83%)
Writing library                  : x264 core 104

Audio

Format                           : AC-3
Duration                         : 1h 30mn
Bit rate                         : 448 Kbps
Channel(s)                       : 6 channels
Channel positions                : Front: L C R, Side: L R, LFE
Sampling rate                    : 48.0 KHz
Bit depth                        : 16 bits
Stream size                      : 291 MiB (15%)
Language                         : English

Text #1
Language                         : Danish

Text #2
Language                         : Swedish

Text #3
Language                         : Norwegian

Text #4
Language                         : Finnish

Menu
00:00:00.000                     : Chapter  1
00:08:05.760                     : Chapter  2


